# xmcd
#
# Track frame offsets: 
#        150
#        11735
#        35168
#        46175
#        60028
#        72328
#        85047
#        95989
#        107089
#        124433
#        135630
#        147948
#        161470
#        173333
#        186398
#        198035
#        208731
#        220398
#        232174
#        243262
#        254799
#        268059
#        280844
#        292252
#        302672
#        315320
#        326621
#
# Disc length: 4528 seconds
#
# Revision: 3
# Processed by: cddbd v1.5.2PL0 Copyright (c) Steve Scherf et al.
# Submitted via: ExactAudioCopyFreeDBPlugin 1.0
#
DISCID=9c11ae1b
DTITLE=VVAA - The complete Motown singles,  vol. 1: 1959-61 [CD4)
DYEAR=2004
DGENRE=R&B/Soul
TTITLE0=THE SATINTONES - Angel
TTITLE1=MARVIN GAY - (I'm afraid) The masquerade is over
TTITLE2=MARVIN GAY - Witchcraft
TTITLE3=MARVIN GAYE - Let your conscience be your guide
TTITLE4=MARVIN GAYE - Never let you go (sha lu bop)
TTITLE5=MARY WELLS - I don't want to take a chance
TTITLE6=MARY WELLS - I'm so sorry
TTITLE7=ANDRE WILLIAMS - Rosa Lee (stay off the bell)
TTITLE8=ANDRE WILLIAMS - Shoo-doo
TTITLE9=BARRETT STRONG - Misery
TTITLE10=BARRETT STRONG - Two wrongs don't make a right
TTITLE11=THE MIRACLES - Broken hearted
TTITLE12=THE MIRACLES - Mighty good lovin'
TTITLE13=MABLE JOHN - No love [without strings]
TTITLE14=MABLE JOHN - Looking for a man
TTITLE15=GINO PARKS - Same thing
TTITLE16=GINO PARKS - That's no lie
TTITLE17=THE SATINTONES - I know how it feels
TTITLE18=THE SATINTONES - My kind of love
TTITLE19=MABLE JOHN - No love [with strings]
TTITLE20=THE SUPREMES - Buttered popcorn [first version]
TTITLE21=THE SUPREMES - Who's lovin' you
TTITLE22=THE SUPREMES - Buttered popcorn [second version]
TTITLE23=THE TEMPTATIONS - Oh mother of mine
TTITLE24=THE TEMPTATIONS - Romance without finance
TTITLE25=GOLDEN HARMONEERS - I am bound
TTITLE26=GOLDEN HARMONEERS - Precious memories
EXTD=
EXTT0=
EXTT1=
EXTT2=
EXTT3=
EXTT4=
EXTT5=
EXTT6=
EXTT7=
EXTT8=
EXTT9=
EXTT10=
EXTT11=
EXTT12=
EXTT13=
EXTT14=
EXTT15=
EXTT16=
EXTT17=
EXTT18=
EXTT19=
EXTT20=
EXTT21=
EXTT22=
EXTT23=
EXTT24=
EXTT25=
EXTT26=
PLAYORDER=
